# xmcd
#
# Track frame offsets:
#	150
#	15008
#	36098
#	58090
#	80454
#	105238
#
# Disc length: 1829 seconds
#
# Revision: 1
# Processed by: cddbd v1.5.2PL0 Copyright (c) Steve Scherf et al.
# Submitted via: audiograbber 1.83.01
#
DISCID=35072306
DTITLE=Meringue - 4: Defect
DYEAR=1900
DGENRE=
TTITLE0=O Humbug (Escapism)
TTITLE1=Fuck You! Love Me! I'm A Rockstar (Megalomania)
TTITLE2=It's Not Okay (Dysmorphophobia)
TTITLE3=Nicotine Boys And Girls (Dependance)
TTITLE4=Desert Island (Social Aboulia)
TTITLE5=1,000 Placebos Attack 1 Victim By Choice (Hypochondria)
EXTD=
EXTT0=
EXTT1=
EXTT2=
EXTT3=
EXTT4=
EXTT5=
PLAYORDER=
